<svg width="19" height="16" viewBox="0 0 19 16" fill="none" xmlns="http://www.w3.org/2000/svg">
<path d="M18.5 4.53703V12.4316C18.5 13.166 18.2037 13.8704 17.6762 14.3897C17.1488 14.909 16.4334 15.2008 15.6875 15.2008H3.3125C2.56658 15.2008 1.85121 14.909 1.32376 14.3897C0.796316 13.8704 0.5 13.166 0.5 12.4316V4.53703L9.21425 9.58589C9.30082 9.63616 9.39949 9.66267 9.5 9.66267C9.60051 9.66267 9.69918 9.63616 9.78575 9.58589L18.5 4.53703ZM15.6875 0.800781C16.3795 0.800674 17.0473 1.05179 17.5631 1.50609C18.0789 1.96039 18.4064 2.58598 18.4831 3.26318L9.5 8.46601L0.516875 3.26318C0.593553 2.58598 0.921114 1.96039 1.43689 1.50609C1.95267 1.05179 2.62046 0.800674 3.3125 0.800781H15.6875Z" fill="#B92929"/>
</svg>
