<svg width="33" height="30" viewBox="0 0 33 30" fill="none" xmlns="http://www.w3.org/2000/svg">
<path d="M32.4178 15.0019C32.4178 16.5503 29.5556 17.6285 29.0997 19.0256C28.6276 20.4733 30.2903 23.0187 29.4092 24.2238C28.5198 25.4412 25.5693 24.6483 24.3474 25.5341C23.1373 26.411 22.9875 29.4549 21.5338 29.925C20.1309 30.3785 18.2196 28.0183 16.6653 28.0183C15.111 28.0183 13.1997 30.3785 11.7968 29.925C10.3431 29.4549 10.1933 26.411 8.98318 25.5341C7.76075 24.6483 4.81082 25.4412 3.92137 24.2238C3.04086 23.0187 4.70299 20.4738 4.23089 19.0256C3.77555 17.6291 0.91333 16.5503 0.91333 15.0019C0.91333 13.4535 3.77555 12.3752 4.23145 10.9781C4.70355 9.53044 3.04086 6.98501 3.92193 5.77989C4.81138 4.56254 7.76187 5.35538 8.98374 4.46962C10.1939 3.59277 10.3436 0.548824 11.7974 0.0786844C13.2511 -0.391455 15.1116 1.98539 16.6659 1.98539C18.2202 1.98539 20.1315 -0.374207 21.5344 0.0792408C22.9373 0.532689 23.1378 3.59333 24.348 4.47018C25.5704 5.35593 28.5203 4.56309 29.4098 5.78045C30.2903 6.98556 28.6282 9.53044 29.1003 10.9787C29.5724 12.4269 32.4184 13.454 32.4184 15.0024L32.4178 15.0019Z" fill="url(#paint0_linear_1024_23828)"/>
<path d="M20.2847 7.54259C19.6746 6.98688 18.7518 6.70903 17.5167 6.70903C16.0881 6.70903 15.0461 6.98688 14.3914 7.54259C14.2047 7.70142 14.0494 7.88894 13.9247 8.10472L10.1261 8.42795L13.6689 8.72935C13.5984 8.99051 13.5573 9.27907 13.5462 9.59545L8.2011 9.93881L13.5429 10.2817V11.4497L7.63086 11.9527L13.5429 12.4558V13.452L10.1257 13.7513L13.5429 14.0103V15.1345L8.2011 15.4775L13.5429 15.8204V16.9849L10.1257 17.2756L13.5429 17.5663V18.7308L8.2011 19.0737L13.5429 19.4166V19.9313C13.5429 20.156 13.5666 20.3684 13.6129 20.5683L9.19902 20.9438L13.9536 21.3483C14.1402 21.6223 14.3893 21.8638 14.7037 22.071C15.4182 22.5368 16.3559 22.7693 17.5163 22.7693C18.6025 22.7693 19.4879 22.4914 20.1727 21.9357C20.768 21.4554 21.0659 20.9074 21.0659 20.2913V16.2815H17.9626V20.1988C17.9626 20.32 17.9236 20.4142 17.846 20.4823C17.7679 20.5503 17.6431 20.5841 17.4722 20.5841C17.3317 20.5841 17.2112 20.5503 17.1102 20.4823C17.0093 20.4146 16.9583 20.3204 16.9583 20.1997V9.21057C16.9583 9.07485 17.0008 8.97724 17.0869 8.91644C17.1726 8.85651 17.3012 8.82611 17.4722 8.82611C17.6431 8.82611 17.7679 8.85651 17.846 8.91687C17.9236 8.97724 17.9626 9.07571 17.9626 9.21142V12.3624H21.0659V9.50169C21.0659 8.67584 20.8058 8.02338 20.2847 7.54259Z" fill="white"/>
<defs>
<linearGradient id="paint0_linear_1024_23828" x1="23.0809" y1="0.0171201" x2="13.3381" y2="33.0318" gradientUnits="userSpaceOnUse">
<stop stop-color="#DDC406"/>
<stop offset="1" stop-color="#FFE840"/>
</linearGradient>
</defs>
</svg>
