<svg width="66" height="66" viewBox="0 0 66 66" fill="none" xmlns="http://www.w3.org/2000/svg">
<rect width="66" height="66" rx="33" fill="#1B78AF"/>
<path d="M29.75 40.5735L27.8937 15.7574C27.8021 14.4338 27.9625 13.3529 28.375 12.5147C28.7875 11.6324 29.3604 10.9926 30.0937 10.5956C30.8271 10.1985 31.6521 10 32.5687 10C33.4854 10 34.2875 10.1985 34.975 10.5956C35.7083 10.9926 36.2812 11.6324 36.6937 12.5147C37.1521 13.3971 37.3354 14.5662 37.2437 16.0221L35.25 40.5735H29.75ZM32.4312 55C30.9646 55 29.6813 54.5368 28.5812 53.6103C27.5271 52.6397 27 51.4706 27 50.1029C27 48.7353 27.5271 47.5441 28.5812 46.5294C29.6813 45.5147 30.9646 45.0074 32.4312 45.0074C33.9896 45.0074 35.2958 45.5368 36.35 46.5956C37.45 47.6103 38 48.7794 38 50.1029C38 51.3824 37.4271 52.5294 36.2812 53.5441C35.1812 54.5147 33.8979 55 32.4312 55Z" fill="white"/>
</svg>
