<svg width="48" height="48" viewBox="0 0 48 48" fill="none" xmlns="http://www.w3.org/2000/svg">
<path d="M41.5 12.4351H6.5C5.6375 12.4351 4.9375 13.1351 4.9375 13.9976C4.9375 14.8601 5.6375 15.5601 6.5 15.5601H41.5C42.3625 15.5601 43.0625 14.8601 43.0625 13.9976C43.0625 13.1351 42.3625 12.4351 41.5 12.4351ZM34 22.4363H14C13.1375 22.4363 12.4375 23.1363 12.4375 23.9988C12.4375 24.8613 13.1375 25.5613 14 25.5613H34C34.8625 25.5613 35.5625 24.8613 35.5625 23.9988C35.5625 23.1363 34.8625 22.4363 34 22.4363ZM27.75 32.4363H20.1837C19.3212 32.4363 18.6212 33.1363 18.6212 33.9988C18.6212 34.8613 19.3212 35.5613 20.1837 35.5613H27.75C28.6125 35.5613 29.3125 34.8613 29.3125 33.9988C29.3125 33.1363 28.6125 32.4363 27.75 32.4363Z" fill="#E7E7E7"/>
</svg>
