<svg width="48" height="48" viewBox="0 0 48 48" fill="none" xmlns="http://www.w3.org/2000/svg">
<rect x="48" y="48" width="48" height="48" rx="3" transform="rotate(-180 48 48)" fill="#9E9E9E"/>
<rect x="48" y="48" width="48" height="48" rx="3" transform="rotate(-180 48 48)" fill="black" fill-opacity="0.5"/>
<path d="M6.5 35.5649L41.5 35.5649C42.3625 35.5649 43.0625 34.8649 43.0625 34.0024C43.0625 33.1399 42.3625 32.4399 41.5 32.4399L6.5 32.4399C5.6375 32.4399 4.9375 33.1399 4.9375 34.0024C4.9375 34.8649 5.6375 35.5649 6.5 35.5649ZM14 25.5637L34 25.5637C34.8625 25.5637 35.5625 24.8637 35.5625 24.0012C35.5625 23.1387 34.8625 22.4387 34 22.4387L14 22.4387C13.1375 22.4387 12.4375 23.1387 12.4375 24.0012C12.4375 24.8637 13.1375 25.5637 14 25.5637ZM20.25 15.5637H27.8163C28.6788 15.5637 29.3788 14.8637 29.3788 14.0012C29.3788 13.1387 28.6788 12.4387 27.8163 12.4387H20.25C19.3875 12.4387 18.6875 13.1387 18.6875 14.0012C18.6875 14.8637 19.3875 15.5637 20.25 15.5637Z" fill="#E7E7E7"/>
</svg>
