<svg width="38" height="38" viewBox="0 0 38 38" fill="none" xmlns="http://www.w3.org/2000/svg">
<path d="M19.5938 35.6249C15.0271 35.6249 10.6474 33.8108 7.41826 30.5817C4.18911 27.3525 2.375 22.9729 2.375 18.4062C2.375 11.4296 6.38281 5.17447 12.5882 2.47365C12.8069 2.37834 13.0493 2.3511 13.2837 2.3955C13.5181 2.4399 13.7337 2.55387 13.9024 2.72257C14.0711 2.89126 14.185 3.10686 14.2294 3.34126C14.2738 3.57566 14.2466 3.818 14.1513 4.0367C13.4388 5.67248 13.0625 7.76768 13.0625 10.0937C13.0625 18.2785 19.7214 24.9374 27.9063 24.9374C30.2323 24.9374 32.3275 24.5612 33.9632 23.8487C34.1819 23.7533 34.4243 23.7261 34.6587 23.7705C34.8931 23.8149 35.1087 23.9289 35.2774 24.0976C35.4461 24.2663 35.56 24.4819 35.6044 24.7163C35.6488 24.9507 35.6216 25.193 35.5263 25.4117C32.8255 31.6171 26.5703 35.6249 19.5938 35.6249Z" fill="white"/>
</svg>
