<svg width="24" height="22" viewBox="0 0 24 22" fill="none" xmlns="http://www.w3.org/2000/svg">
<path d="M23.2907 11.0013C23.2907 12.1081 21.2449 12.8788 20.9191 13.8773C20.5816 14.9121 21.7701 16.7315 21.1403 17.5928C20.5046 18.463 18.3957 17.8963 17.5223 18.5294C16.6573 19.1561 16.5503 21.3318 15.5112 21.6679C14.5085 21.992 13.1424 20.305 12.0314 20.305C10.9204 20.305 9.55431 21.992 8.55157 21.6679C7.51249 21.3318 7.40547 19.1561 6.5405 18.5294C5.66675 17.8963 3.55824 18.463 2.9225 17.5928C2.29314 16.7315 3.48117 14.9125 3.14373 13.8773C2.81827 12.8792 0.772461 12.1081 0.772461 11.0013C0.772461 9.89458 2.81827 9.12388 3.14413 8.12531C3.48157 7.09055 2.29314 5.27116 2.9229 4.40979C3.55864 3.53967 5.66755 4.10636 6.5409 3.47326C7.40587 2.84652 7.51289 0.670814 8.55197 0.334775C9.59104 -0.00126347 10.9208 1.69762 12.0318 1.69762C13.1428 1.69762 14.5089 0.0110646 15.5116 0.335173C16.5144 0.659281 16.6577 2.84691 17.5227 3.47366C18.3964 4.10676 20.505 3.54007 21.1407 4.41019C21.7701 5.27156 20.582 7.09055 20.9195 8.1257C21.2569 9.16086 23.2911 9.89498 23.2911 11.0017L23.2907 11.0013Z" fill="url(#paint0_linear_1024_25517)"/>
<path d="M14.6188 5.66959C14.1827 5.27239 13.5231 5.07379 12.6403 5.07379C11.6192 5.07379 10.8744 5.27239 10.4064 5.66959C10.273 5.78312 10.162 5.91715 10.0728 6.07138L7.35771 6.30242L9.88997 6.51785C9.83962 6.70451 9.81021 6.91076 9.80232 7.1369L5.98181 7.38232L9.7999 7.62743V8.46222L5.57422 8.82178L9.7999 9.18134V9.89343L7.35741 10.1073L9.7999 10.2925V11.096L5.98181 11.3412L9.7999 11.5863V12.4186L7.35741 12.6264L9.7999 12.8342V13.6665L5.98181 13.9116L9.7999 14.1567V14.5246C9.7999 14.6852 9.81688 14.837 9.84994 14.9799L6.69508 15.2483L10.0935 15.5374C10.2269 15.7333 10.4049 15.9059 10.6296 16.054C11.1403 16.3869 11.8105 16.5531 12.64 16.5531C13.4163 16.5531 14.0492 16.3545 14.5387 15.9573C14.9642 15.6139 15.1771 15.2223 15.1771 14.7819V11.9158H12.959V14.7158C12.959 14.8024 12.9311 14.8697 12.8756 14.9184C12.8198 14.967 12.7306 14.9912 12.6084 14.9912C12.508 14.9912 12.4219 14.967 12.3497 14.9184C12.2776 14.87 12.2412 14.8027 12.2412 14.7164V6.8618C12.2412 6.76479 12.2715 6.69502 12.3331 6.65157C12.3943 6.60873 12.4862 6.587 12.6084 6.587C12.7306 6.587 12.8198 6.60873 12.8756 6.65188C12.9311 6.69502 12.959 6.76541 12.959 6.86241V9.11463H15.1771V7.06988C15.1771 6.47959 14.9912 6.01324 14.6188 5.66959Z" fill="white"/>
<defs>
<linearGradient id="paint0_linear_1024_25517" x1="16.617" y1="0.290771" x2="9.65325" y2="23.8885" gradientUnits="userSpaceOnUse">
<stop stop-color="#DDC406"/>
<stop offset="1" stop-color="#FFE840"/>
</linearGradient>
</defs>
</svg>
