<svg width="24" height="24" viewBox="0 0 24 24" fill="none" xmlns="http://www.w3.org/2000/svg">
<path d="M10.5625 14.5156V14.0234C10.5625 13.638 10.6068 13.3021 10.6953 13.0156C10.7839 12.7292 10.9323 12.4609 11.1406 12.2109C11.349 11.9557 11.6302 11.6901 11.9844 11.4141C12.349 11.1276 12.638 10.8802 12.8516 10.6719C13.0703 10.4635 13.2266 10.2552 13.3203 10.0469C13.4193 9.83333 13.4688 9.58594 13.4688 9.30469C13.4688 8.86198 13.3177 8.52604 13.0156 8.29688C12.7188 8.0625 12.2995 7.94531 11.7578 7.94531C11.2786 7.94531 10.8281 8.01302 10.4062 8.14844C9.98438 8.28385 9.56771 8.45312 9.15625 8.65625L8.50781 7.28125C8.98177 7.02083 9.49479 6.8125 10.0469 6.65625C10.6042 6.49479 11.2161 6.41406 11.8828 6.41406C12.9453 6.41406 13.7656 6.67188 14.3438 7.1875C14.9271 7.70312 15.2188 8.38281 15.2188 9.22656C15.2188 9.6901 15.1458 10.0885 15 10.4219C14.8542 10.75 14.638 11.0547 14.3516 11.3359C14.0703 11.612 13.7292 11.9036 13.3281 12.2109C13 12.4714 12.7474 12.6979 12.5703 12.8906C12.3984 13.0781 12.2786 13.2682 12.2109 13.4609C12.1484 13.6536 12.1172 13.8854 12.1172 14.1562V14.5156H10.5625ZM10.2656 17.0312C10.2656 16.6042 10.375 16.3047 10.5938 16.1328C10.8177 15.9557 11.0911 15.8672 11.4141 15.8672C11.7266 15.8672 11.9948 15.9557 12.2188 16.1328C12.4427 16.3047 12.5547 16.6042 12.5547 17.0312C12.5547 17.4479 12.4427 17.75 12.2188 17.9375C11.9948 18.1198 11.7266 18.2109 11.4141 18.2109C11.0911 18.2109 10.8177 18.1198 10.5938 17.9375C10.375 17.75 10.2656 17.4479 10.2656 17.0312Z" fill="#F73737"/>
<rect x="0.75" y="0.75" width="22.5" height="22.5" rx="11.25" stroke="#F73737" stroke-width="1.5"/>
</svg>
