<svg width="33" height="32" viewBox="0 0 33 32" fill="none" xmlns="http://www.w3.org/2000/svg">
<path d="M32.9128 16.0019C32.9128 17.5925 29.9835 18.7001 29.5169 20.1353C29.0337 21.6224 30.7354 24.2372 29.8337 25.4751C28.9234 26.7256 25.9037 25.9112 24.6531 26.8211C23.4146 27.7218 23.2614 30.8487 21.7735 31.3317C20.3377 31.7975 18.3816 29.373 16.7909 29.373C15.2001 29.373 13.244 31.7975 11.8082 31.3317C10.3203 30.8487 10.1671 27.7218 8.92856 26.8211C7.67745 25.9112 4.65833 26.7256 3.74802 25.4751C2.84686 24.2372 4.54797 21.623 4.0648 20.1353C3.59878 18.7007 0.669434 17.5925 0.669434 16.0019C0.669434 14.4113 3.59878 13.3037 4.06537 11.8686C4.54855 10.3814 2.84686 7.76664 3.74859 6.52869C4.6589 5.27817 7.6786 6.09261 8.92913 5.18272C10.1677 4.28198 10.3209 1.15511 11.8087 0.672159C13.2966 0.18921 15.2007 2.63081 16.7914 2.63081C18.3822 2.63081 20.3383 0.206928 21.7741 0.67273C23.2099 1.13853 23.4152 4.28255 24.6537 5.18329C25.9048 6.09318 28.9239 5.27874 29.8343 6.52926C30.7354 7.76721 29.0343 10.3814 29.5175 11.8691C30.0007 13.3568 32.9134 14.4119 32.9134 16.0025L32.9128 16.0019Z" fill="#1E84C1"/>
<path d="M8.74951 11.5405V20.8096H24.9102V11.5115C24.9102 11.0091 24.2832 10.7802 23.9595 11.1644L20.4211 15.3648L17.0639 10.6762C16.8433 10.3681 16.382 10.378 16.1748 10.6953L13.1264 15.3648L9.70448 11.1986C9.38348 10.8077 8.74951 11.0347 8.74951 11.5405Z" fill="white"/>
</svg>
