<svg width="41" height="41" viewBox="0 0 41 41" fill="none" xmlns="http://www.w3.org/2000/svg">
<path d="M19.2188 6.40625V2.5625C19.2188 2.22269 19.3537 1.8968 19.594 1.65652C19.8343 1.41624 20.1602 1.28125 20.5 1.28125C20.8398 1.28125 21.1657 1.41624 21.406 1.65652C21.6463 1.8968 21.7812 2.22269 21.7812 2.5625V6.40625C21.7812 6.74606 21.6463 7.07195 21.406 7.31223C21.1657 7.55251 20.8398 7.6875 20.5 7.6875C20.1602 7.6875 19.8343 7.55251 19.594 7.31223C19.3537 7.07195 19.2188 6.74606 19.2188 6.40625ZM20.5 10.25C18.4727 10.25 16.491 10.8512 14.8054 11.9774C13.1198 13.1037 11.806 14.7046 11.0302 16.5775C10.2544 18.4504 10.0515 20.5114 10.447 22.4997C10.8425 24.488 11.8187 26.3144 13.2522 27.7478C14.6856 29.1813 16.512 30.1576 18.5003 30.5531C20.4886 30.9485 22.5496 30.7456 24.4225 29.9698C26.2954 29.194 27.8963 27.8802 29.0226 26.1946C30.1488 24.509 30.75 22.5273 30.75 20.5C30.747 17.7824 29.6662 15.177 27.7446 13.2554C25.823 11.3338 23.2176 10.253 20.5 10.25ZM9.34352 11.1565C9.58393 11.3969 9.91 11.532 10.25 11.532C10.59 11.532 10.9161 11.3969 11.1565 11.1565C11.3969 10.9161 11.532 10.59 11.532 10.25C11.532 9.91 11.3969 9.58393 11.1565 9.34352L8.59398 6.78102C8.35357 6.5406 8.0275 6.40554 7.6875 6.40554C7.3475 6.40554 7.02143 6.5406 6.78102 6.78102C6.5406 7.02143 6.40554 7.3475 6.40554 7.6875C6.40554 8.0275 6.5406 8.35357 6.78102 8.59398L9.34352 11.1565ZM9.34352 29.8435L6.78102 32.406C6.5406 32.6464 6.40554 32.9725 6.40554 33.3125C6.40554 33.6525 6.5406 33.9786 6.78102 34.219C7.02143 34.4594 7.3475 34.5945 7.6875 34.5945C8.0275 34.5945 8.35357 34.4594 8.59398 34.219L11.1565 31.6565C11.2755 31.5374 11.37 31.3961 11.4344 31.2406C11.4988 31.0851 11.532 30.9184 11.532 30.75C11.532 30.5816 11.4988 30.4149 11.4344 30.2594C11.37 30.1039 11.2755 29.9626 11.1565 29.8435C11.0374 29.7245 10.8961 29.63 10.7406 29.5656C10.5851 29.5012 10.4183 29.468 10.25 29.468C10.0817 29.468 9.91495 29.5012 9.75941 29.5656C9.60388 29.63 9.46256 29.7245 9.34352 29.8435ZM30.75 11.5312C30.9183 11.5314 31.085 11.4984 31.2405 11.434C31.3961 11.3697 31.5374 11.2754 31.6565 11.1565L34.219 8.59398C34.4594 8.35357 34.5945 8.0275 34.5945 7.6875C34.5945 7.3475 34.4594 7.02143 34.219 6.78102C33.9786 6.5406 33.6525 6.40554 33.3125 6.40554C32.9725 6.40554 32.6464 6.5406 32.406 6.78102L29.8435 9.34352C29.6641 9.52271 29.5419 9.75109 29.4924 9.99976C29.4429 10.2484 29.4683 10.5062 29.5653 10.7405C29.6624 10.9747 29.8268 11.1749 30.0376 11.3156C30.2485 11.4564 30.4964 11.5314 30.75 11.5312ZM31.6565 29.8435C31.4161 29.6031 31.09 29.468 30.75 29.468C30.41 29.468 30.0839 29.6031 29.8435 29.8435C29.6031 30.0839 29.468 30.41 29.468 30.75C29.468 31.09 29.6031 31.4161 29.8435 31.6565L32.406 34.219C32.5251 34.338 32.6664 34.4325 32.8219 34.4969C32.9774 34.5613 33.1441 34.5945 33.3125 34.5945C33.4809 34.5945 33.6476 34.5613 33.8031 34.4969C33.9586 34.4325 34.0999 34.338 34.219 34.219C34.338 34.0999 34.4325 33.9586 34.4969 33.8031C34.5613 33.6476 34.5945 33.4809 34.5945 33.3125C34.5945 33.1441 34.5613 32.9774 34.4969 32.8219C34.4325 32.6664 34.338 32.5251 34.219 32.406L31.6565 29.8435ZM7.6875 20.5C7.6875 20.1602 7.55251 19.8343 7.31223 19.594C7.07195 19.3537 6.74606 19.2188 6.40625 19.2188H2.5625C2.22269 19.2188 1.8968 19.3537 1.65652 19.594C1.41624 19.8343 1.28125 20.1602 1.28125 20.5C1.28125 20.8398 1.41624 21.1657 1.65652 21.406C1.8968 21.6463 2.22269 21.7812 2.5625 21.7812H6.40625C6.74606 21.7812 7.07195 21.6463 7.31223 21.406C7.55251 21.1657 7.6875 20.8398 7.6875 20.5ZM20.5 33.3125C20.1602 33.3125 19.8343 33.4475 19.594 33.6878C19.3537 33.9281 19.2188 34.2539 19.2188 34.5938V38.4375C19.2188 38.7773 19.3537 39.1032 19.594 39.3435C19.8343 39.5838 20.1602 39.7188 20.5 39.7188C20.8398 39.7188 21.1657 39.5838 21.406 39.3435C21.6463 39.1032 21.7812 38.7773 21.7812 38.4375V34.5938C21.7812 34.2539 21.6463 33.9281 21.406 33.6878C21.1657 33.4475 20.8398 33.3125 20.5 33.3125ZM38.4375 19.2188H34.5938C34.2539 19.2188 33.9281 19.3537 33.6878 19.594C33.4475 19.8343 33.3125 20.1602 33.3125 20.5C33.3125 20.8398 33.4475 21.1657 33.6878 21.406C33.9281 21.6463 34.2539 21.7812 34.5938 21.7812H38.4375C38.7773 21.7812 39.1032 21.6463 39.3435 21.406C39.5838 21.1657 39.7188 20.8398 39.7188 20.5C39.7188 20.1602 39.5838 19.8343 39.3435 19.594C39.1032 19.3537 38.7773 19.2188 38.4375 19.2188Z" fill="white"/>
</svg>
